<?xml version="1.0" encoding="UTF-8" standalone="no"?>
<svg
   width="81"
   height="59"
   version="1.1"
   id="svg4"
   sodipodi:docname="fig9.5.svg"
   inkscape:export-filename="C:\Users\Hal Motley\Documents\GitLab\SurvivalManual-ebook\e-book\OEBPS\images\fig09.05.png"
   inkscape:export-xdpi="414.91525"
   inkscape:export-ydpi="414.91525"
   inkscape:version="1.1 (c68e22c387, 2021-05-23)"
   xmlns:inkscape="http://www.inkscape.org/namespaces/inkscape"
   xmlns:sodipodi="http://sodipodi.sourceforge.net/DTD/sodipodi-0.dtd"
   xmlns="http://www.w3.org/2000/svg"
   xmlns:svg="http://www.w3.org/2000/svg">
  <defs
     id="defs8" />
  <sodipodi:namedview
     id="namedview6"
     pagecolor="#ffffff"
     bordercolor="#666666"
     borderopacity="1.0"
     inkscape:pageshadow="2"
     inkscape:pageopacity="0.0"
     inkscape:pagecheckerboard="0"
     showgrid="false"
     inkscape:zoom="13.061728"
     inkscape:cx="40.53828"
     inkscape:cy="29.475425"
     inkscape:window-width="1920"
     inkscape:window-height="976"
     inkscape:window-x="1912"
     inkscape:window-y="-8"
     inkscape:window-maximized="1"
     inkscape:current-layer="svg4" />
  <path
     fill="#000"
     fill-rule="nonzero"
     d="M59 4.6C61.4 2 63.4 0 63.5 0c.3.3-2.4 3.5-6.5 7.8-4 4.4-5.8 5-11.6 5.4-3.7 0-4.8 0-6.2-.6-1-.4-2-.6-2.7-.4-.8 0-1.2 0-1.4-.6-.2-.7-.2-.7-.8 0-1 1.5-.8 2 1.2 3.3 1.6 1 2 1 3.7.6 1-.3 2-.3 2.2 0l-1.5.5c-1 .2-2 .7-2.7 1.2-.5.5-1 1-1.3 1-.2 0-.4.2-.5.7 0 .3-.5.7-1 .7-.2 0-1 .4-1.8 1-1.2.8-1.3 1-1 2 .2.6.2 1 0 1-.3 0-.6-.4-.7-1-.3-.8-.4-.7-1.6.7-.6.8-1 1.7-1 2 0 1.7 2 2.2 3.8 1 .4-.3.4-.6 0-1.3-.3-.5-.3-.8 0-.8s.6.3.7.6c.4 1 1.2.8 2.4-.4.4-.6 1-1 1-1 .2.3-.2 1-1 1.7-1.2 1.4-1.2 1.4-.4 2.7.8 1.4.2 1.8-.7.4-.8-.8-.8-.7-2.6 1.6-2 2.6-2 3-1 4.3 1 1.2 2 .8 5.3-2.6l3-3c0 .4-1.2 2-2.8 3.6-3.8 4-3.8 5.7 0 5.7 1.7 0 2 0 1.7-.8 0-.6.5-1.6 2.4-3.4 1.5-1.5 2.7-2.4 2.7-2.2 0 .3-.6 1-1.4 1.8-1.5 1.4-3 4-3 5.3 0 2 3.8 1 5.7-1.4.5-.5 1-1 1.4-1l4-1.8c4.2-2 8-5.3 10.5-9 1-1.5 2-2.6 3.3-3.2l2.7-1.7 2.2-1.5c1.2-.7 1.2-.7-.2.6-1 .7-2.6 2-4 2.7-1.3 1-2.7 2.2-3.6 3.5-3.3 4.8-7.2 8-11.7 9.8-1.8.6-3.6 1.6-4 2.3-2.4 2.6-5.4 3.5-6.4 1.8-.4-.6-1-.8-2.3-.8-1.8 0-3.8-1.3-3.8-2.5 0-.2-.3-.5-.6-.5-1 0-2.8-2-2.8-2.7 0-.4.5-1.4 1-2.3 1.2-1.7 1-2.4-.7-2.4-1 0-1.7-1-1.7-2.6 0-1.4 1.5-3.2 4.5-5.3 3-1.8 4.6-3.7 3.8-4-.3-.4-.7-.5-1-.5-.8 0-1.6-1.7-1.4-3 0-1 0-1.2-1.7-1.3-2 0-2 0-2 1.4 0 1 0 1.6-.3 1.6-.2 0-.4-.6-.4-1.3v-1.2l-1 1c-1 1.3-1 2.7 0 4.8.6 1 .8 1.8.6 1.8-.3 0-.6-.4-.7-.8-.3-.5-.5-.2-.7 1.4-.4 2.5-1.4 4-3 5-.8.4-3 1.5-4.6 2.6-3 1.7-3.3 1.8-5 1.4-2.2-.5-5.8-.6-7.3-.2L6 29l1.3 1.2c.7.7 2 1.8 3 2.5 2.2 1.6 2 1.5 3.5 5.6 2 6.8 5.2 10.8 10 13 2.3 1.3 2.6 1.3 4.5.8 2.3-.6 6.5-1.4 7.4-1.3 1.5 0 3 .2 3 .5 1.3 1.5 10 5.3 14.6 6.3 3 .7 8 .7 11.3 0C72 56 76.3 52 78.8 44c1.4-4.7 2.2-11.7 1.4-12.2-.3-.2-.5 0-.5.7 0 3.2-.8 9.6-1.3 10.3-.4.7-.5.6-.2-.4l.7-6c0-2.8.4-5.6.5-6.3.2-1-.7-4.5-1.2-4.5v2c.2 1.5 0 2-.3 1.7-.3-.2-.5-.7-.3-1 0-.6 0-1.8-.4-2.8l-.5-2-.3 3c0 1.5-.3 3.5-.5 4.5s-.2 1.7.3 2c.4.2.4.3 0 .3-1 0-1.5-1.7-.8-4 .4-1.4.7-3 .7-4 0-1.2 0-1.2-1.3 1.3-.8 1.4-1.4 3-1.4 3.3 0 .3 0 1-.3 1.5-.2.6-.4.3-.6-1l-.3-1.7v1.8c0 1 0 2.8.4 4 .5 2.3.2 6-.4 6-.2 0-.3-1.2-.2-2.7.2-1.7 0-3.2-.2-3.4-.3-.3-.5.7-.6 3-.2 2-.5 3.8-.8 4-.4.5-.4.2-.2-1.3 0-1 .3-2.6.4-3.3 0-1.5.2-1.4-3-1.6-1 0-1.4-.2-1.3-.6.2-.3 0-.6-.2-.6-.3 0-.7.5-1 1-.5 1.6-1 1.5-.6 0L65 34l-1 1c-.4.7-1 1.6-1 2.3l-.7 2c-.3 1-.4 1-.3-.7.2-3-.8-2.3-1.7 1.4l-.5 2.3v-1.7c0-1 0-2 .3-2.5.5-.5.4-.6-.3-.4-.5 0-1 .4-1.3.7-.3.4-1 .5-2.2.4-1.5-.2-1.7 0-2 1 0 1 .2 1.6 1 2.5 1.2 1.5 1.2 1.7.3 3-1 1-3.7 1.6-6 1.2-1-.2-2.6-.4-3.5-.3-1.5 0-1.7 0-.7.4 1 .3 1 .4-.4.4h-1.7l1 .7c.7.3 1.7.6 2.4.6 1.7 0 2 1 .4 1h-6.5c-.2 0-.4-.3-.4-.6 0-.5.3-.6 1.2-.3 1.5.8 4.2.7 3.2 0-.3 0-1-.3-1.8-.3-.7 0-1.2-.2-1.2-.4 0-.5 2.4-1.8 3.3-1.8.3 0 0-.5-.7-1.2s-1.3-1.7-1.3-2.2c0-.8 1.2-1.7 2.3-1.7.3 0 0 .2-.4.4-2.3 1-.7 3.5 3 4.6 2.8.8 4.3.8 6.2 0 2-.8 2-2.6 0-3.4-.5-.3-.7-.8-.6-2.3v-2H56c1.3 0 2.6-.2 2.8-.4l2-1c1-.2 2.3-1 3-1.7 1.2-1.5 2-1.6 4.4-.4l2 1 .8-1.6c1.2-2 1-10.7-.2-13.6-1-2.4-1-2.4-.3-2.4.3 0 .8-.3 1-.8.7-1 5.8-5 6-4.7.2.2-1 1.4-2.8 2.6-2.8 2.2-3 2.4-2 2.7 2.3 1 3.6 2.5 6 7.4 2.3 4.5 2.5 5.3 2.8 8.6.3 3.3 0 4.3-1 8-2 8.5-4.7 12.3-9.7 15-3.2 1.7-6 2.3-11.4 2.3-3.6 0-5-.2-9-1.5-2.5-.7-6.2-2-8.2-2.8-5-2-5.8-2-8.2-2-3 0-5.5.6-5.5 1.5 0 1-1.2 2.3-2 2.3-.4 0-1.3.4-2 1-3 2-9 1.2-11.7-1.5-.8-.8-2-3-3-5C8.4 48 7 46 5.3 44 3 41.7 0 37.4 0 36.5c0-.3 1.5-.5 3.3-.5 3 0 6.7-1 6.7-1.8 0-.7-3.7-4-6-5-1.2-.8-2.3-1.5-2.3-1.7 0-.2.3-.2.7 0 2 .7 3 .6 6.5-.5 3.3-1.2 4.6-2 3-2-.8 0-4.4-1.8-6-3-1.3-1-.8-1.6 1-.6.7.3 3 .8 5 1 2.3.3 4.3 1 6.2 1.8 3 1.5 4 1.5 5.6 0 2-1.7 2.6-3.8 2.8-10 0-.4.5-1.5 1.2-2.3.7-1 1.5-2 1.6-2.8.2-.6.5-1 .7-1 .4 0 .5.3.3 1-.2.8 0 1 1 1.3 1 0 2 0 3-.5 1.5-.8 1.6-.8 2.3 0 .6 1 2.7 2 3.4 2 .3 0 .5-.4.6-1 .4-1 1.6-1.5 2.6-.8 1.2.7 1.5.6 2.2-1.3 1-2.2 2-2.3 4-.5 2.3 2 3.2 2.4 4.4 1.6.5-.2 3-2.7 5.2-5.4zM49 9c0-.3-.6-.7-1-1-1-.4-1.6 0-2 2-.5 1.6-1.3 1.8-2.7 1-1-.8-1.2-.8-1.8 0l-.5 1c0 .7 8.7.2 10-.4l1-.6-1.4-.8c-.7-.4-1.4-1-1.5-1.2zm-12.6 1.7c-.2-.3-.6-.5-1-.5-.7 0-.7 0 0 .5.8.5 1.3.5 1 0zm37.2 8.7c-.5-.7-1.3-1.3-1.8-1.3-.7 0-.8.3-.6 1.5.2.8.7 2.2 1.2 3 .8 1.7 1 3.2.4 2.8-.2 0-.2.4 0 1 0 2 .7 1.7 1-.5 1-3.2.8-5-.2-6.4zm2.2 2.3c0-.7-.2-1.5-.4-1.7-.6-.3-.6 1.6 0 2.4.3.5.4.3.4-.7zm-61 2.2c-1.3-.4-3-.6-3.5-.6-1 0-.8 0 .7.8 1 .4 2 1 2 1.2.4.5-2.2 1.8-3.7 2l2.8.4c3.6.5 3.8.5 5.4-.5l1.6-1-1.4-1c-.7-.4-2.5-1-3.8-1.4zm17.4 3.5c.4-.4.4-.7 0-.7s-1 .8-.7 1c0 .2.4 0 .7-.3zm-19 12L11.6 35c0-.2-1 .3-2.5.8-1.5.7-3 1-5.2 1h-3l1 1.6c.6 1 2.2 3 3.7 4.7 1.8 2 3.4 4.3 4.5 6.6 1 2 2.2 4 2.8 4.7 1.8 2 7 3.4 9.3 2.4 1.4-.6 1.4-.8-.7-1.8-1-.6-3-2-4.3-3.3-2.3-2.2-1.8-2 1.3.5 2 1.5 5.6 3.4 6.6 3.4.3 0 1-.4 1.4-.8.7-.6.5-.8-2-2-5.8-2.6-8.8-6.2-11.2-13.2zM38 51.8l-2.2-.5c-.4 0 0 .3 1.2.6 2.3.7 3 .6 1 0zm-5.5-49l2-.7c.2 0 0 1-.4 2-.3 1-.7 1.8-.8 1.5 0-.2-.4-.5-.8-.5s-.6.2-.4.4c.2.4-1.4 2.5-1.7 2.2 0 0 .3-1 .8-1.8 1-1.4 1.2-1.6.5-2-.7 0-.4-.4 1-1zM28.8 16c0-.8.2-1.4.4-1.4.3 0 .4.6.4 1.3 0 .6 0 1.2-.4 1.2-.2 0-.4-.6-.4-1.3zm39.2.4c0-.3.2-.5.4-.5h.4c0 .2 0 .4-.4.6-.2 0-.4 0-.4-.2zm-1 .8c0-.2.3-.4.4-.4 1 0-2 2-4.4 3.3-2 1.2-4 2.6-5.6 4.4-1.4 1.4-2.3 2.2-2 1.7.4-.5 1-1.3 1.8-1.8.6-.5 1.3-1.3 1.4-1.8.2-.5 1.7-1.6 4-2.8 2.3-1 4-2 4.3-2.4zm-37.8 1c0-1 .7 0 1 1.3.2.7 0 1.2 0 1.2-.5 0-1-1.4-1-2.6zm8.5 5c.6-.8 1.2-1.2 1.3-1 .2 0-.3.7-1 1.3-1.4 1.5-1.8 1.2-.3-.4zm3.6 3.5c.7-.8 1.4-1 1.4-.5s-2.2 2-2.2 1.6c0 0 .3-.7.8-1zm3 5c.6-.6 1.3-.8 1.5-.7.2 0 0 .5-.7 1-1.6.7-1.8.6-.6-.4zm31.8 3c.2-.4.4-.5.5-.4.3.3-.7 8.7-1.2 9.5-.3.5-.4.4 0-.4l.3-4.6.5-4zm-9.3 4c0-1.3.3-2.3.5-2.3.5 0 0 5.7-.6 8.8-.7 3-1 2.2-.4-1.3.3-1.7.5-4 .5-5.4zm1.7 1c0-1.4.3-2.4.5-2.4.3 0 0 4.3-.4 4.7 0 0-.2-1-.2-2.3zm5.4.3c.2-1 .4-2 .6-2 .3 0-.4 4.2-.8 5-.4.4-.4.4-.2-.3l.4-2.7zm-9 1c.7-3 1-3.2.7-.4-.4 3.6-1 6.7-1.4 6.7v-2l1-4.3zm-7 .3c0-1.4.4-1.2.8.4 0 1 0 1.2-.2 1-.2 0-.5-.8-.5-1.4zm-10.6 0c-.3-.7-.3-.7 1 0 .6.5 1.4.7 2 .5 1-.3 1-.2.4.4-.6.8-3 1-3 .3l-.4-1.2zM72 42c0-.6 0-.8.2-.5v1c0 .4-.2.2-.2-.5zm-19.7-.2c0-.5.8 0 1.5.6.4.5.7 1.3.6 1.7-.2.8-.6 1-3.4.8-4.5 0-4.4 0-4.4-.5 0-.2.8-.2 1.6-.2l3.3.3c2.2 0 2.8-.4 1.7-1.4-.5-.6-1-1-1-1.2zM71.5 44c0-.4 0-.7.2-.5 0 0 .2.5 0 .8 0 .4-.2.2-.2-.2zm-9.3 2.6c-.5 2-1 3.4-2 4.2-.6.7-1 1.4-1 1.5 1 1 4.3-6 4-8-.2-.4-.6.6-1 2.3zm6.4-.5c.4-1.2.8-2.2 1-2 .2.2-1 4.6-1.6 5-.4.5-.5.5-.3 0l1-3zm8.2-.4c.7-1 .7-.5 0 1-1 2.8-2 4.6-2.3 4.6-.4 0 1.4-4 2.3-5.6zm-7 2.2c.3-1 .6-1.8.8-1.8.7 0-1.3 5-2.7 7-1.6 2.2-1.7 1.3-.2-1 .8-1.2 1.7-3 2-4.2zm2.3 1c.5-1 1-2 1.2-2 .6 0 .6.3-.7 3C72 51 71.2 52 71 52c-.4 0-.4 0 0-.5 0-.3.7-1.4 1-2.6zm-16-.4l2-1c.4 0-2.4 2-3.2 2.2-1.2.3-1 0 1-1.2zm3.7.7c.3-.4.7-.7.8-.6 0 0 0 .5-.4 1 0 .6-.5 1-.6.8 0 0 0-.6.3-1zm-22 .6c.7-.3 1.5-.4 1.7-.2 1 .7 5.8 1.8 8 1.8 1.4 0 2.3.2 2.3.5 0 .7-5.6 0-8.5-1-1.3-.3-2.6-.5-3-.3h-1c-.6-.2-.5-.4.5-.8zm1.7 1.3c-.8-.7-.8-.7.2-.2 1.4.6 1.6.8 1 .8-.2 0-.7-.3-1.2-.7zm18.4 0c.3-.3 1-.4 1 0s-3 2-4 2c-.8 0-.6-.3.8-.8l2.2-1zm7 2c1.2-1 2-2 2.2-2 .4.2-1.4 2.5-2.5 3.2-2 1.4-1.8 1 .4-1.2zm-18.2 1c-3.2-1.3-2.4-1.2 2.8 0 3.7 1 4 1 2 1l-4.8-1zm9.4 1l2.5-.2c.2 0 .2 0 0 .3 0 .3-1.2.5-2.4.5H54L56 55z"
     id="path2" />
</svg>
